<svg xmlns="http://www.w3.org/2000/svg" width="34" height="34.001" viewBox="0 0 34 34.001">
  <g id="Logo_color" data-name="Logo color" transform="translate(0 0)">
    <g id="logo">
      <path id="Trazado_2029" data-name="Trazado 2029" d="M624.321,254.97v34h26.365l6.661-34Z" transform="translate(-624.321 -254.97)" fill="#006755"/>
      <path id="Trazado_2028" data-name="Trazado 2028" d="M685.277,254.97h-1.35l-6.758,34h8.108Z" transform="translate(-651.277 -254.97)" fill="#00a98f"/>
      <path id="Trazado_2421" data-name="Trazado 2421" d="M646.7,270.375a8.054,8.054,0,0,0-5.2-1.413,17.225,17.225,0,0,0-3.35.346,17.884,17.884,0,0,0-1.736.438l-.862,4.368a10.811,10.811,0,0,1,1.846-.774,9.114,9.114,0,0,1,2.636-.353,2.9,2.9,0,0,1,2.115.661,2.271,2.271,0,0,1,.655,1.658,3.843,3.843,0,0,1-1.289,2.74,46.29,46.29,0,0,1-5.2,4.011l-2.7,1.887-1.005,5.092h13.222l.817-4.141h-7.966l3.487-2.381a21.817,21.817,0,0,0,4.7-4.161,6.828,6.828,0,0,0,1.528-4.285,4.585,4.585,0,0,0-1.7-3.693" transform="translate(-628.477 -261.979)" fill="#fff"/>
      <path id="Trazado_2423" data-name="Trazado 2423" d="M671.643,283.614l-5.028,1.708-.865,4.489,3.845-1.532L666.564,303.8h4.885l3.957-20.189Z" transform="translate(-645.557 -269.801)" fill="#fff"/>
    </g>
  </g>
</svg>
