<svg xmlns="http://www.w3.org/2000/svg" xmlns:xlink="http://www.w3.org/1999/xlink" width="317" height="202" viewBox="0 0 317 202">
  <defs>
    <clipPath id="clip-path">
      <rect id="Rectángulo_668" data-name="Rectángulo 668" width="317" height="202" transform="translate(43 438)" fill="#fff"/>
    </clipPath>
  </defs>
  <g id="Enmascarar_grupo_7" data-name="Enmascarar grupo 7" transform="translate(-43 -438)" clip-path="url(#clip-path)">
    <g id="Grupo_393" data-name="Grupo 393" transform="translate(33.512 424.053)" opacity="0.16">
      <path id="Trazado_2254" data-name="Trazado 2254" d="M498.449,4.006c-18.158-8.46-43.119-2.872-58.856,10.687C418.575,32.8,411.926,62.139,393.742,82.943a83.108,83.108,0,0,1-55.431,27.605,83.866,83.866,0,0,1-59.268-18.615c-8.851-7.33-16.005-16.434-24.854-23.767S233.925,55.2,222.428,56.9c-17.573,2.593-32.02,21.48-49.137,16.821-16.627-4.525-23.422-29.282-40.68-28.736-14.9.471-23.117,20.431-38.018,20.952C85.555,66.252,78.1,59.014,73.579,51.4S66.091,35.12,59.821,28.786C45.9,14.73,19.062,18.963,7.453,34.876s-8.93,38.995,3.015,54.671,31.41,24.641,51.144,28.209c20.715,3.746,39.6,51.737,59.087,59.538,20.645,8.266,38.635-23.755,54.585-8.57s35.887,29.38,58.182,28.193c17.124-.912,32.992-10.908,50.129-10.257,18.833.716,34.3,13.868,48.922,25.426s32.649,22.765,51.026,18.705c22.1-4.882,33-28.95,37.98-50.434,3.8-16.414,5.737-35.423,16.8-48.819,11.088-13.425,26.007-23.222,39.9-33.65,21.062-15.812,50.356-44.5,39.217-73.186A36.732,36.732,0,0,0,498.449,4.006Z" transform="translate(-92.638 90.911) rotate(-7)" fill="#42c4b5" opacity="0.63"/>
      <path id="Trazado_2255" data-name="Trazado 2255" d="M217.877,281.021a52.326,52.326,0,0,1-40.958-24.126c-8.038-12.873-9.967-28.474-13.1-43.325s-8.329-30.431-20.477-39.53c-11.548-8.648-26.867-9.634-41.15-11.68S72.317,155.85,64.853,143.5c-6.857-11.343-4.838-26.239-10.95-38C48.038,94.212,35.931,87.916,24.974,81.45S2.649,66.378.386,53.859c-1.767-9.775,2.72-19.909,9.7-26.974S26.267,15.391,35.55,11.858a185.826,185.826,0,0,1,137.191,2.6c14.725,6.255,28.859,14.505,44.593,17.4,16.361,3.013,34.965.531,47.99,10.88,11.238,8.931,14.4,25.1,11.9,39.238s-9.641,26.933-15.907,39.847-11.855,26.828-10.87,41.147c.832,12.119,59.424,36.185,64.559,47.194,9.821,21.059,6.983,34.941-4.811,56.073C301.782,281.321,234.5,281.885,217.877,281.021Z" transform="matrix(-0.695, 0.719, -0.719, -0.695, 377.763, 160.561)" fill="#4ac7b8" opacity="0.33"/>
    </g>
  </g>
</svg>
