<?xml version="1.0" encoding="utf-8"?>
<!-- Generator: Adobe Illustrator 19.0.0, SVG Export Plug-In . SVG Version: 6.00 Build 0)  -->
<svg version="1.1" id="Capa_1" xmlns="http://www.w3.org/2000/svg" xmlns:xlink="http://www.w3.org/1999/xlink" x="0px" y="0px"
	 viewBox="-264 234 312 128.3" style="enable-background:new -264 234 312 128.3;" xml:space="preserve">
<style type="text/css">
	.st0{opacity:8.000000e-002;fill:#FFFFFF;enable-background:new    ;}
</style>
<path class="st0" d="M27.3,290.4c-4.7,1.3-9.5,2.7-14.3,3.8c-9,2.1-18,3.2-26.8,0.7c-13.9-4.1-24.2-17.1-38.3-20.3
	c-15.4-3.5-30.8,5.4-43.3,15.1c-11.5,8.9-22.9,19.2-36.8,22.8c-1.3,0.3-2.5,0.6-3.8,0.8c-13.8,2.2-27.5-2.9-39.8-9.8
	c-2.4-1.3-4.7-2.7-7-4.2c-14.1-8.8-27.9-19.2-44.2-22.7c-12.4-2.6-25.6-0.7-37,4.9v16.7V362v0.3H48V362v-75
	C41.1,287.1,33.9,288.6,27.3,290.4z"/>
<path class="st0" d="M42,239.4c-14.4,15.2-20.2,36.1-29,55.2c-2.9,6.3-6.2,12.4-10.2,18.1c-12.2,17.2-31.4,29.3-52.3,32.8
	c-20.8,3.5-43-1.5-60.2-13.8c-8-5.7-14.9-12.8-22.6-18.9c-1.3-1-2.7-2.1-4-3.1c-9.4-6.7-21.2-11.4-32.3-8.7
	c-2.5,0.6-4.9,1.6-7.3,2.8c-13.6,6.9-25,21.3-39.7,18.6c-16.8-3.2-25.7-27.7-42.7-25.7c-2.1,0.2-4,0.9-5.7,1.8v63.8H48v-75V234
	C45.9,235.7,43.9,237.5,42,239.4z"/>
</svg>
